<?xml version="1.0" encoding="utf-8"?>
<!-- Svg Vector Icons : http://www.onlinewebfonts.com/icon -->
<!DOCTYPE svg PUBLIC "-//W3C//DTD SVG 1.1//EN" "http://www.w3.org/Graphics/SVG/1.1/DTD/svg11.dtd">
<svg version="1.1" xmlns="http://www.w3.org/2000/svg" xmlns:xlink="http://www.w3.org/1999/xlink" x="0px" y="0px" viewBox="0 0 256 256" enable-background="new 0 0 256 256" xml:space="preserve">
<metadata> Svg Vector Icons : http://www.onlinewebfonts.com/icon </metadata>
<g><g><g><path fill="#000000" d="M107.3,36c-2.7,2.6-14.8,14.5-26.9,26.5c-20.5,20.2-22,21.9-22,23.3c0,3,2.7,4.9,5.2,3.5c2-1,53.4-52.1,53.6-53.2c0.6-2.4-1.4-4.8-4.1-4.8C112.6,31.3,110.3,33.1,107.3,36z"/><path fill="#000000" d="M140.6,31.8c-1.2,0.6-2.2,2.8-1.8,4.2c0.3,1.2,52.3,52.8,53.9,53.4c2.5,0.9,4.9-0.9,4.9-3.8c0-1.4-1.5-3-21.6-22.8c-11.8-11.7-23.9-23.6-26.9-26.5C143.6,31.1,142.9,30.7,140.6,31.8z"/><path fill="#000000" d="M17.3,100c-2.5,1.2-4.8,3.3-6.1,5.7c-0.9,1.7-1,2.7-1.2,11.6c-0.2,11.9,0.2,13.9,3.5,17.2c2.2,2.2,5.6,3.6,8.4,3.6c1.2,0,1.4,0.6,14.8,37.9c7.4,20.9,13.9,38.8,14.4,39.9c1.2,2.8,4.2,5.6,7.7,7.2l3,1.4h65h65l2.6-1.1c2.8-1.1,5.8-3.4,7.4-5.7c0.6-0.8,7.8-19,16-40.4l15-38.9l2.8-0.6c3.6-0.7,5.1-1.5,7.2-3.8c2.8-3.1,3.2-5.4,3-16.8c-0.1-8.9-0.2-9.9-1.2-11.6c-1.3-2.4-3.6-4.6-6.1-5.7c-2.1-0.9-2.4-1-110.7-1C19.8,99.1,19.4,99.1,17.3,100z M237.1,108.1c1.2,1.1,1.2,1.2,1.2,10.6c0,9.5,0,9.5-1.2,10.6l-1.1,1.2H128H20l-1.1-1.2c-1.2-1.1-1.2-1.2-1.2-10.6c0-9.5,0-9.5,1.2-10.6l1.1-1.2h108h108L237.1,108.1z M224.2,140c-0.4,1-4.4,11.5-9,23.4c-4.6,11.9-10.8,27.9-13.7,35.6c-5.6,14.7-6.4,16.1-9.6,17.4c-1.2,0.6-12.7,0.6-65,0.6H63.2l-1.8-1.1c-1-0.6-2.2-1.5-2.7-2.2c-0.7-1-26.1-71.2-26.9-74.5l-0.3-1.1h96.6h96.7L224.2,140z"/><path fill="#000000" d="M75.9,154.3c-0.4,0.1-1.2,0.7-1.7,1.2l-1.1,0.9v21.3V199l1.1,1c1.5,1.4,4,1.3,5.3,0c1-1.1,1-1.2,1-22.4c0-20.7,0-21.4-0.9-22.2c-0.5-0.5-1.1-0.9-1.3-0.9c-0.2,0-0.7-0.1-1.1-0.2C76.9,154.1,76.3,154.1,75.9,154.3z"/><path fill="#000000" d="M107,154.4c-2.5,1-2.5,0.8-2.5,23.4v20.9l1.2,1.1c1.2,1.2,3.3,1.5,4.8,0.7c1.7-0.9,1.8-2.8,1.8-23.1c0-21.8,0-22-2.8-22.9c-0.8-0.3-1.5-0.5-1.5-0.5C107.9,154,107.5,154.2,107,154.4z"/><path fill="#000000" d="M146.1,154.6c-0.8,0.4-1.7,1.2-1.9,1.8c-0.6,1.8-0.6,40.2,0,42.1c0.9,2.6,4.2,3.2,6.2,1.2l1.2-1.1v-21v-21l-1-1.2C149.1,154.1,147.9,153.8,146.1,154.6z"/><path fill="#000000" d="M177.5,154.6c-0.8,0.4-1.6,1-1.8,1.4c-0.1,0.4-0.3,10.2-0.3,21.9V199l1.1,1c1.6,1.5,4.1,1.4,5.3-0.2c1-1.2,1-1.7,1-22.3v-21.1l-1-0.9C180.4,154.1,179.2,153.9,177.5,154.6z"/></g></g></g>
</svg>