<svg width="18" height="18" viewBox="0 0 18 18" fill="none" xmlns="http://www.w3.org/2000/svg">
<path fill-rule="evenodd" clip-rule="evenodd" d="M9 18C4.05 18 0 13.9501 0 8.95519C0.045 4.00529 4.05 -0.0446277 9.045 0.000371403C13.995 0.0453705 18 4.05029 18 9.09018C17.955 13.9951 13.95 18 9 18Z" fill="#FC070C"/>
<path fill-rule="evenodd" clip-rule="evenodd" d="M14.5853 6.30451L14.5853 6.30447C14.1685 5.89978 13.7281 5.47215 13.3394 5.12715L13.3 5.09959C13.2345 5.04698 13.1606 5.00572 13.0814 4.97752L12.7815 4.92156L12.7815 4.92156C10.7115 4.53533 4.00181 3.28337 3.86379 3.30015C3.82296 3.30587 3.78394 3.32067 3.7496 3.34347L3.71219 3.373C3.66613 3.41978 3.63115 3.47629 3.60982 3.53837L3.59998 3.56397V3.70375V3.7254C4.05551 4.99384 5.23884 7.82657 6.33146 10.4421L6.33147 10.4422C7.25521 12.6535 8.11411 14.7096 8.41355 15.5339L8.41366 15.5343C8.45307 15.6564 8.52787 15.8883 8.66752 15.9001H8.69902C8.77383 15.9001 9.09277 15.4788 9.09277 15.4788C9.09277 15.4788 14.7943 8.56458 15.3711 7.82827C15.4458 7.73757 15.5117 7.64001 15.568 7.53689C15.5972 7.37278 15.5381 7.20536 15.4124 7.09589C15.1668 6.86911 14.8821 6.59262 14.5853 6.30451ZM10.5555 7.90111L12.9889 5.88315L14.4163 7.19827L10.5555 7.90111ZM5.42106 4.33571L9.61055 7.7692L12.1994 5.58587L5.42106 4.33571ZM9.98855 8.66892L14.2765 7.97789L9.3743 13.8841L9.98855 8.66892ZM9.26011 8.41889L4.8521 4.67828L8.62224 13.8881L9.26011 8.41889Z" fill="white"/>
</svg>
