<svg width="14" height="15" viewBox="0 0 14 15" fill="none" xmlns="http://www.w3.org/2000/svg">
<path d="M10.9086 14.6457C10.3279 14.9943 9.6237 14.6669 9.25307 14.0577C8.44263 12.8634 7.70878 11.5539 7.24673 10.0989C6.95764 9.36843 7.34062 8.41968 8.00281 8.30449C9.61629 7.99531 11.3039 7.92256 12.9001 8.3833C13.6784 8.65005 13.5969 9.91707 13.2954 10.6203C12.6802 12.0904 11.9661 13.603 10.9086 14.6457Z" fill="#2860E6"/>
<path d="M3.50098 13.7091C3.03645 13.894 2.35202 13.5545 2.36191 12.8785C2.36438 11.5448 2.44839 10.2081 2.52992 8.8804C2.49533 8.05895 3.50345 7.8104 3.73571 8.57122C3.90867 9.46239 3.83207 10.393 3.91114 11.2993C3.91608 12.1116 4.21259 13.1938 3.50098 13.7091Z" fill="#2860E6"/>
<path d="M4.46434 6.6434C3.1869 6.71312 1.87239 6.79799 0.624605 6.39182C-0.0721807 6.1857 -0.106773 5.04295 0.137843 4.37912C0.649313 2.98478 1.35104 1.69653 2.17631 0.553783C2.61613 -0.110043 3.55011 -0.20704 4.04182 0.426475C4.93627 1.59651 5.65282 2.97266 6.19889 4.42762C6.46821 5.04598 6.4015 5.87652 5.91227 6.29482C5.45763 6.53428 4.95357 6.58278 4.46434 6.6434Z" fill="#2860E6"/>
<path d="M10.8691 6.40092C10.496 6.90712 9.66327 6.63129 9.72999 5.87653C9.65586 4.50644 9.54467 3.12422 9.56444 1.7511C9.71516 0.708383 11.1532 0.841753 11.1507 1.8966C11.1112 3.39703 11.1409 4.93383 10.8691 6.40092Z" fill="#2860E6"/>
</svg>
