<svg width="56" height="56" viewBox="0 0 56 56" fill="none" xmlns="http://www.w3.org/2000/svg">
<rect width="56.0008" height="56" rx="28" fill="#DBE1FF"/>
<path d="M39.6251 33.5804L36.0047 25.1135C35.3454 23.5635 34.3622 22.6845 33.2403 22.6266C32.1298 22.5688 31.0541 23.3438 30.2329 24.8243L28.0352 28.7686C27.5725 29.6014 26.9132 30.0988 26.1961 30.1566C25.4674 30.226 24.7386 29.8443 24.1487 29.0925L23.8943 28.7686C23.073 27.7392 22.0551 27.2418 21.0141 27.3459C19.9731 27.45 19.0825 28.1671 18.4926 29.3354L16.4915 33.3259C15.7744 34.7718 15.8438 36.449 16.6881 37.8139C17.5325 39.1788 19.0015 40 20.6093 40H35.3686C36.9185 40 38.3644 39.225 39.2203 37.9295C40.0994 36.6341 40.2382 35.0031 39.6251 33.5804ZM22.2182 23.8192C23.2551 23.8192 24.2495 23.4073 24.9827 22.6741C25.7159 21.9409 26.1278 20.9465 26.1278 19.9096C26.1278 18.8727 25.7159 17.8783 24.9827 17.1451C24.2495 16.4119 23.2551 16 22.2182 16C21.1813 16 20.1869 16.4119 19.4537 17.1451C18.7206 17.8783 18.3086 18.8727 18.3086 19.9096C18.3086 20.9465 18.7206 21.9409 19.4537 22.6741C20.1869 23.4073 21.1813 23.8192 22.2182 23.8192Z" fill="#2860E6"/>
</svg>
