<?xml version="1.0" encoding="UTF-8" ?>
<!DOCTYPE svg PUBLIC "-//W3C//DTD SVG 1.1//EN" "http://www.w3.org/Graphics/SVG/1.1/DTD/svg11.dtd">
<svg width="1200pt" height="300pt" viewBox="0 0 1200 300" version="1.1" xmlns="http://www.w3.org/2000/svg">
<g id="#1e54a5ff">
<path fill="#1e54a5" opacity="1.00" d=" M 958.84 3.45 C 1018.53 3.45 1078.22 3.53 1137.92 3.45 C 1151.22 3.52 1164.71 7.55 1175.20 15.89 C 1187.76 25.73 1195.42 41.21 1196.74 57.00 C 1197.57 83.00 1197.28 109.02 1197.31 135.04 C 1197.32 169.36 1197.26 203.68 1197.18 238.00 C 1196.98 246.87 1195.63 255.86 1191.92 263.99 C 1184.96 279.53 1170.96 292.27 1154.09 295.85 C 1144.24 298.33 1134.03 297.36 1123.99 297.55 C 1090.14 297.46 1056.29 297.81 1022.45 297.34 C 1063.53 276.36 1104.87 255.88 1146.01 235.01 C 1160.43 228.11 1167.45 209.03 1160.44 194.56 C 1147.84 167.60 1134.77 140.85 1121.83 114.05 C 1118.47 107.59 1115.96 100.48 1110.86 95.10 C 1104.83 88.58 1095.80 85.32 1087.02 85.55 C 1080.41 85.98 1074.28 88.82 1068.67 92.16 C 1074.03 106.67 1080.09 120.91 1085.74 135.31 C 1090.21 145.73 1094.40 156.99 1092.28 168.51 C 1090.58 183.66 1081.21 197.98 1066.99 204.05 C 1019.11 224.68 970.66 243.98 922.76 264.57 C 927.46 275.78 933.20 286.53 938.28 297.57 C 892.85 297.53 847.41 297.61 801.98 297.59 C 789.27 297.48 776.54 293.42 766.68 285.29 C 753.11 274.51 745.65 257.15 745.25 240.02 C 745.25 210.67 745.29 181.31 745.32 151.95 C 745.41 146.95 745.17 141.92 745.81 136.94 C 752.23 154.24 757.58 171.93 763.81 189.29 C 769.19 203.30 785.53 212.25 800.18 208.02 C 812.18 204.28 823.95 199.82 835.85 195.78 C 882.09 179.68 928.30 163.47 974.61 147.57 C 986.95 143.49 995.82 131.02 995.80 118.05 C 995.86 111.82 993.95 105.82 991.92 100.00 C 985.42 80.48 978.89 60.98 972.32 41.49 C 967.90 28.78 964.13 15.83 958.84 3.45 M 989.19 46.57 C 995.02 64.40 1000.99 82.19 1007.02 99.95 C 1014.14 118.43 1008.69 141.54 993.00 153.94 C 985.59 159.92 976.22 162.31 967.44 165.48 C 923.88 180.74 880.25 195.81 836.74 211.19 C 840.54 221.06 844.61 230.82 848.51 240.65 C 851.06 247.10 854.35 253.61 860.07 257.82 C 868.88 264.69 881.40 265.90 891.58 261.52 C 945.17 239.10 998.80 216.75 1052.42 194.40 C 1057.23 192.36 1062.31 190.65 1066.46 187.36 C 1074.70 181.04 1079.52 170.47 1078.59 160.10 C 1078.13 154.76 1076.08 149.76 1074.09 144.84 C 1063.11 117.51 1052.10 90.18 1041.15 62.83 C 1039.33 58.05 1037.12 53.29 1033.53 49.57 C 1027.70 43.55 1019.57 39.38 1011.07 39.53 C 1003.27 39.77 996.04 43.14 989.19 46.57 Z" />
<path fill="#1e54a5" opacity="1.00" d=" M 768.10 15.15 C 777.76 7.69 789.89 3.80 802.05 3.55 C 820.04 3.31 838.04 3.54 856.03 3.48 C 865.13 3.58 874.24 3.23 883.32 3.92 C 837.71 20.04 791.97 35.79 746.25 51.60 C 748.92 37.40 756.40 23.84 768.10 15.15 Z" />
</g>
<g id="#131313ff">
<path fill="#131313" opacity="1.00" d=" M 320.38 61.52 C 323.91 59.83 327.54 63.43 327.69 66.89 C 328.25 74.24 328.48 81.63 328.62 89.00 C 328.68 93.27 325.02 96.74 320.99 97.48 C 310.52 99.96 299.98 102.13 289.58 104.87 C 292.37 109.22 296.81 112.01 300.36 115.66 C 306.60 122.10 312.72 128.67 319.02 135.06 C 325.45 142.27 331.84 149.55 338.92 156.13 C 341.45 158.31 343.79 160.95 347.03 162.08 C 354.32 164.63 362.71 165.17 369.86 161.89 C 375.88 156.99 378.49 149.11 379.99 141.73 C 381.49 137.02 383.12 131.54 387.87 129.14 C 394.60 132.48 401.49 135.47 408.21 138.84 C 408.56 140.23 408.90 141.63 409.27 143.02 C 407.18 148.88 404.09 154.77 405.55 161.20 C 416.69 163.50 428.15 165.18 439.54 163.99 C 446.01 163.79 452.55 163.00 458.59 160.56 C 461.16 159.10 462.72 155.85 461.95 152.95 C 460.01 143.77 457.83 134.65 455.71 125.52 C 454.94 122.27 455.28 118.93 455.59 115.65 C 465.31 113.24 474.87 110.10 484.69 108.16 C 486.92 122.70 490.57 137.21 489.86 152.03 C 489.85 159.81 490.32 168.06 486.07 174.97 C 483.73 181.20 478.50 185.43 473.65 189.67 C 469.67 193.63 463.95 194.72 458.90 196.72 C 452.32 198.64 445.96 201.88 438.96 201.81 C 433.29 201.88 427.63 201.59 421.98 201.25 C 416.11 200.89 410.68 198.43 404.97 197.30 C 398.92 196.54 395.88 189.27 389.56 189.45 C 385.09 195.00 377.94 196.88 371.59 199.38 C 364.45 202.42 356.50 201.63 348.95 201.43 C 340.85 200.22 332.96 197.26 326.16 192.67 C 322.14 190.28 320.21 185.15 315.34 184.07 C 312.58 186.75 309.76 189.47 306.30 191.25 C 301.37 193.76 296.47 196.63 290.93 197.52 C 284.91 198.56 279.24 201.31 273.04 201.34 C 264.01 201.37 254.98 201.86 245.96 201.44 C 239.40 201.24 233.34 198.33 227.68 195.26 C 219.40 190.49 213.87 182.13 211.01 173.18 C 209.40 164.85 207.60 156.47 207.68 147.94 C 207.41 122.90 206.23 97.87 206.48 72.83 C 207.72 71.42 208.96 70.02 210.20 68.62 C 215.45 68.32 220.71 68.15 225.95 67.59 C 229.78 67.42 233.78 66.55 237.53 67.78 C 239.24 68.29 239.56 70.35 239.72 71.88 C 240.10 86.24 239.39 100.63 240.21 114.98 C 240.29 127.99 240.28 141.01 240.28 154.02 C 239.92 158.52 243.22 163.39 247.99 163.56 C 260.33 165.29 272.74 162.96 285.09 162.44 C 288.46 162.50 292.21 161.31 293.72 158.02 C 291.83 152.27 287.03 148.19 283.03 143.88 C 272.48 132.48 258.62 125.02 246.76 115.15 C 245.26 107.06 247.63 99.05 248.05 90.98 C 248.19 87.87 248.47 84.73 249.69 81.84 C 273.12 74.62 296.88 68.52 320.38 61.52 Z" />
<path fill="#131313" opacity="1.00" d=" M 503.64 73.60 C 505.42 71.81 507.20 69.45 510.02 69.52 C 517.70 69.44 525.41 69.40 533.08 69.82 C 535.75 69.80 536.53 72.86 536.33 75.01 C 536.33 115.72 536.28 156.44 536.29 197.16 C 533.69 199.55 530.76 202.03 526.98 201.87 C 520.10 202.13 513.06 203.34 506.28 201.64 C 505.95 199.77 505.68 197.88 505.62 195.98 C 504.94 155.19 504.43 114.40 503.64 73.60 Z" />
<path fill="#131313" opacity="1.00" d=" M 684.41 75.88 C 684.07 71.95 688.35 69.11 691.98 69.45 C 699.30 69.58 706.66 69.32 713.98 69.84 C 716.63 69.91 716.98 72.95 716.85 74.99 C 716.66 115.84 716.97 156.69 716.73 197.53 C 714.19 199.60 711.50 201.94 707.99 201.83 C 700.97 202.13 693.77 203.37 686.85 201.60 C 686.18 197.49 686.22 193.33 686.19 189.18 C 685.56 151.42 685.00 113.65 684.41 75.88 Z" />
<path fill="#131313" opacity="1.00" d=" M 23.50 77.58 C 40.98 77.14 58.51 77.51 76.01 77.25 C 79.71 77.10 84.47 77.53 86.15 81.42 C 86.94 88.27 87.34 95.19 87.66 102.08 C 88.03 106.57 82.86 108.78 79.07 108.70 C 62.05 108.80 45.01 108.61 28.01 109.48 C 24.73 109.94 20.97 108.21 20.75 104.55 C 20.25 98.03 20.50 91.47 20.28 84.94 C 20.01 82.12 21.09 79.18 23.50 77.58 Z" />
<path fill="#131313" opacity="1.00" d=" M 416.22 82.95 C 416.18 80.00 418.95 77.28 421.92 77.41 C 429.60 77.38 437.32 77.19 444.99 77.75 C 447.64 77.79 449.16 80.58 449.20 82.94 C 449.33 88.64 448.74 94.32 448.78 100.02 C 448.93 103.11 447.77 107.77 444.05 107.95 C 435.88 108.39 427.68 108.08 419.50 108.35 C 418.10 106.51 416.28 104.66 416.41 102.16 C 416.28 95.76 416.05 89.35 416.22 82.95 Z" />
<path fill="#131313" opacity="1.00" d=" M 127.77 106.82 C 130.29 105.61 132.87 106.83 135.16 107.95 C 135.84 111.20 136.57 114.45 137.56 117.63 C 139.26 122.95 139.50 128.58 140.31 134.08 C 141.49 143.00 143.05 152.01 142.05 161.02 C 140.41 169.35 136.64 177.54 130.50 183.51 C 122.98 191.52 112.95 196.52 103.13 201.11 C 98.03 203.10 92.53 203.81 87.15 204.59 C 71.30 206.01 55.23 206.69 39.44 204.32 C 30.52 203.10 22.17 199.19 14.68 194.32 C 10.17 190.82 5.63 186.14 5.28 180.12 C 3.65 166.75 3.11 153.22 4.20 139.79 C 4.59 134.67 4.95 129.49 6.38 124.53 C 6.89 122.89 7.78 120.66 9.87 120.78 C 16.78 120.49 23.91 121.16 30.35 123.86 C 31.51 124.47 33.01 125.27 33.12 126.75 C 33.89 136.06 28.39 145.05 30.65 154.36 C 31.97 158.24 32.84 162.99 36.72 165.17 C 42.43 167.83 48.77 168.67 54.99 169.13 C 67.16 170.00 79.50 170.32 91.50 167.81 C 98.97 167.07 107.39 165.74 112.17 159.26 C 113.81 155.87 112.18 152.19 111.38 148.81 C 109.35 141.52 109.15 133.75 106.08 126.75 C 104.48 123.23 104.07 119.26 105.07 115.51 C 112.59 112.48 120.25 109.82 127.77 106.82 Z" />
<path fill="#131313" opacity="1.00" d=" M 640.69 115.06 C 648.82 112.45 656.91 109.69 665.05 107.12 C 666.73 106.31 668.45 106.90 670.10 107.44 C 671.23 118.68 673.16 129.82 674.42 141.04 C 674.88 147.33 674.74 153.65 675.14 159.94 C 675.94 167.29 671.57 173.78 667.73 179.64 C 663.26 186.90 655.94 191.69 648.56 195.60 C 645.60 197.18 642.18 197.40 638.99 198.27 C 635.65 199.00 632.54 200.78 629.05 200.74 C 622.35 200.79 615.66 200.69 608.97 200.64 C 605.77 200.77 602.98 199.05 599.97 198.33 C 597.09 201.04 597.43 205.41 595.93 208.84 C 592.86 215.74 589.34 222.56 584.17 228.15 C 580.88 232.76 575.65 235.21 570.89 237.97 C 563.17 241.99 554.76 245.03 545.98 245.28 C 538.41 245.82 529.53 247.10 523.32 241.71 C 523.58 234.45 522.54 227.06 524.11 219.90 C 524.83 216.47 528.52 215.43 531.43 214.56 C 536.41 212.68 541.88 213.58 546.92 211.98 C 553.05 210.06 559.34 207.61 563.60 202.56 C 568.21 198.84 569.25 192.59 569.30 187.00 C 569.27 182.37 569.59 177.64 568.31 173.14 C 567.11 168.74 565.90 164.35 564.85 159.91 C 563.22 153.20 560.04 146.90 559.11 140.01 C 562.09 137.96 565.02 135.76 568.41 134.41 C 575.59 131.65 582.37 127.43 590.25 126.99 C 592.16 134.68 594.12 142.36 596.17 150.01 C 597.28 154.26 599.75 157.95 601.64 161.86 C 603.46 162.40 605.29 162.98 607.19 163.21 C 616.98 164.12 626.90 164.00 636.62 162.43 C 640.24 161.50 644.16 159.21 644.86 155.22 C 646.56 148.43 644.08 141.67 643.57 134.91 C 642.81 128.26 641.63 121.68 640.69 115.06 Z" />
<path fill="#131313" opacity="1.00" d=" M 182.22 128.03 C 184.78 127.04 187.48 128.06 190.03 128.55 C 191.98 135.71 194.56 142.71 195.87 150.03 C 197.31 158.06 200.37 165.84 200.37 174.08 C 200.50 181.39 200.99 188.83 199.08 195.97 C 197.31 202.62 196.33 209.66 192.59 215.59 C 188.32 224.45 181.12 231.55 173.23 237.25 C 165.28 241.89 156.36 245.25 147.09 245.67 C 141.05 245.90 134.98 246.16 128.95 245.55 C 126.11 245.46 123.43 242.91 123.47 240.02 C 123.31 232.58 122.93 225.12 123.32 217.68 C 125.38 216.09 127.37 214.11 130.06 213.70 C 138.57 212.21 147.67 213.51 155.68 209.73 C 160.48 207.84 164.66 204.28 166.61 199.43 C 169.44 194.43 169.32 188.57 169.41 183.01 C 169.74 175.36 165.92 168.43 164.57 161.05 C 163.50 154.50 159.64 148.66 159.55 141.91 C 160.14 137.31 164.98 135.46 168.68 133.82 C 173.31 132.16 177.59 129.67 182.22 128.03 Z" />
<path fill="#131313" opacity="1.00" d=" M 612.86 213.72 C 631.24 213.23 649.64 213.38 668.03 213.44 C 670.88 213.13 673.16 215.01 675.45 216.40 C 676.16 224.63 677.12 232.89 676.76 241.17 C 676.61 243.43 673.89 244.45 671.95 244.51 C 661.64 245.26 651.29 244.50 640.98 245.08 C 631.49 245.26 622.00 245.14 612.51 245.16 C 610.03 238.89 610.80 232.05 610.11 225.48 C 609.76 222.25 609.88 219.01 610.41 215.81 C 611.22 215.11 612.03 214.41 612.86 213.72 Z" />
<path fill="#131313" opacity="1.00" d=" M 334.36 216.53 C 347.89 215.91 361.46 216.47 375.01 216.22 C 383.46 216.36 391.94 215.83 400.38 216.68 C 400.97 226.93 401.80 237.28 400.46 247.51 C 397.29 247.87 394.13 248.27 390.94 248.24 C 378.63 248.23 366.32 248.27 354.01 248.26 C 347.52 248.20 340.98 248.70 334.57 247.46 C 334.18 237.16 333.64 226.82 334.36 216.53 Z" />
</g>
</svg>
