<svg width="20" height="20" viewBox="0 0 20 20" fill="none" xmlns="http://www.w3.org/2000/svg">
<path d="M10.1667 9.83339L8.99165 11.0084C8.34165 11.6584 8.34165 12.7167 8.99165 13.3667C9.64165 14.0167 10.7 14.0167 11.35 13.3667L13.2 11.5167C13.8243 10.8906 14.1749 10.0426 14.1749 9.15839C14.1749 8.27424 13.8243 7.42615 13.2 6.80006C12.5739 6.17577 11.7258 5.8252 10.8417 5.8252C9.9575 5.8252 9.10941 6.17577 8.48332 6.80006L6.46665 8.81673C6.20113 9.08203 5.99049 9.39705 5.84677 9.7438C5.70306 10.0905 5.62909 10.4622 5.62909 10.8376C5.62909 11.2129 5.70306 11.5846 5.84677 11.9313C5.99049 12.2781 6.20113 12.5931 6.46665 12.8584" stroke="#2860E6" stroke-width="1.25" stroke-linecap="round" stroke-linejoin="round"/>
<path d="M7.50002 18.3334H12.5C16.6667 18.3334 18.3334 16.6667 18.3334 12.5001V7.50008C18.3334 3.33341 16.6667 1.66675 12.5 1.66675H7.50002C3.33335 1.66675 1.66669 3.33341 1.66669 7.50008V12.5001C1.66669 16.6667 3.33335 18.3334 7.50002 18.3334Z" stroke="#2860E6" stroke-width="1.25" stroke-linecap="round" stroke-linejoin="round"/>
</svg>
